<svg width="80" height="80" viewBox="0 0 80 80" fill="none" xmlns="http://www.w3.org/2000/svg">
<circle cx="40" cy="40" r="40" fill="#D1D7E3"/>
<path d="M61.6913 38.5323L61.6441 37.7855L61.6016 37.1521L61.5261 36.7645L61.3372 35.7861L61.2003 35.096L61.0634 34.3917L60.8368 33.7111L60.766 33.4984L60.5866 32.9642L60.2514 31.9574L60.19 31.7731L60.0814 31.5509L59.5904 30.5205L59.0097 29.3105L58.9719 29.249L58.8917 29.1261L58.8114 28.9985L58.0607 27.8357L57.5414 27.0322L57.3101 26.7533L57.1826 26.6021L57.0929 26.4933L56.2242 25.4487L55.8135 24.9571L55.4216 24.5885L55.1903 24.371L54.737 23.9456L54.1139 23.3642L53.8447 23.1137L53.7928 23.0759L52.9383 22.452L52.2207 21.9273L51.7533 21.587L51.6636 21.5208L50.691 20.982L50.4455 20.8449L49.2888 20.2068L49.1944 20.169L49.1425 20.1501L47.7497 19.5923L47.712 19.5781L46.7441 19.1905L46.3334 19.0818L46.272 19.0676L44.9595 18.7273L44.7424 18.6706L44.0578 18.4957L43.6187 18.4343L43.1608 18.3681L42.311 18.2452L41.9569 18.1932L41.4989 18.1696L41.041 18.1459L39.889 18.0939H39.7993H39.7049L38.5576 18.1696L38.1375 18.1979L37.2829 18.2546L36.9336 18.2783L36.4378 18.3775L35.9799 18.4673L34.861 18.6895L34.6438 18.732L34.1859 18.8218L33.3455 19.1007L33.2699 19.1244L31.8725 19.5923H31.863L31.7686 19.6254L31.5751 19.6916L31.4334 19.7577L30.5081 20.2021L30.4184 20.2446L29.1389 20.8638H29.1248L28.9359 20.9914L27.9067 21.6532L27.411 21.9746L26.8539 22.3338L26.6698 22.4851L25.8388 23.1799L25.5461 23.4257L24.7908 24.0591L24.4555 24.423L24.2337 24.6594L23.4405 25.5055L22.9589 26.0207L22.5765 26.5406L22.4915 26.654L22.4018 26.7769L21.604 27.8735L21.3726 28.1902L20.8675 29.093L20.8155 29.1828L20.7778 29.249L20.0649 30.5347L20.0507 30.5583L19.6447 31.5604L19.4653 32.0047L19.1159 32.8697L19.0262 33.0919L18.9129 33.5173L18.8563 33.7394L18.4975 35.1149L18.3275 35.7719L18.318 35.8334L18.1811 36.7787L18.0301 37.8091L18.0206 37.8611L17.9876 38.5182L17.9309 39.6951L17.9167 40.0118L17.9356 40.3332L18.0112 41.4913L18.0584 42.2381L18.1009 42.8668L18.1764 43.2496L18.3653 44.2233L18.4975 44.9087L18.6344 45.6083L18.8563 46.2842L18.9271 46.4969L19.1018 47.031L19.4322 48.0331L19.4936 48.2174L19.5975 48.4396L20.0838 49.4653L20.6597 50.6706L20.6975 50.732L20.773 50.8549L20.8533 50.9826L21.5945 52.1406L22.1091 52.9441L22.3358 53.223L22.4632 53.3743L22.5529 53.483L23.4169 54.5229L23.8229 55.0145L24.21 55.3831L24.4367 55.6006L24.8899 56.026L25.5084 56.6074L25.7728 56.8579L25.8247 56.8957L26.6698 57.5196L27.3827 58.0443L27.8453 58.3846L27.935 58.4508L28.9029 58.9944L29.1484 59.1315L30.2956 59.7743L30.39 59.8121L30.442 59.8357L31.83 60.4029L31.8678 60.4171L32.8309 60.8094L33.2416 60.9182L33.303 60.9323L34.6108 61.2821L34.8279 61.3388L35.5125 61.5184L35.9468 61.5846L36.4048 61.6508L37.2499 61.7784L37.604 61.8304L38.0619 61.854L38.5199 61.8777L39.6718 61.9344H39.7615H39.856L41.0032 61.8635L41.4234 61.8351L42.2779 61.7831L42.6273 61.7595L43.123 61.665L43.5857 61.5752L44.7093 61.3577L44.9265 61.3152L45.3844 61.2254L46.2248 60.9512L46.3003 60.9276L47.7025 60.4644H47.712L47.8064 60.4313L48 60.3651L48.1416 60.2989L49.0717 59.8594L49.1614 59.8168L50.4455 59.2024H50.4597L50.6485 59.0795L51.6825 58.4177L52.1829 58.0963L52.74 57.7371L52.9241 57.5858L53.7598 56.8957L54.0525 56.6499L54.8126 56.0165L55.1525 55.6573L55.3744 55.421L56.1723 54.5749L56.6586 54.0597L57.0457 53.5397L57.1307 53.4263L57.2251 53.2986L58.0324 52.2021L58.2685 51.8806L58.7784 50.9778L58.8303 50.888L58.8681 50.8218L59.5857 49.5314L59.5998 49.5078L60.0106 48.5057L60.1947 48.0567L60.5441 47.187L60.6338 46.9648L60.7471 46.5394L60.8085 46.3173L61.172 44.9371L61.3467 44.2753L61.3561 44.2139L61.4977 43.2638L61.6488 42.2239L61.6583 42.1719L61.6913 41.5149L61.748 40.3285L61.7621 40.0118L61.7432 39.6904L61.6677 38.5229L61.6913 38.5323Z" fill="white"/>
<path d="M44.3251 47.4563V34.6345C44.2421 31.6054 42.8244 30.0632 40.0719 30.0079C37.3056 30.0632 35.8948 31.6054 35.8395 34.6345V47.4563C35.8948 50.5131 37.3056 52.0553 40.0719 52.083C42.8244 52.0553 44.2421 50.5131 44.3251 47.4563ZM31.5033 47.7053V34.3648C31.531 31.5708 32.4231 29.42 34.1797 27.9124C35.8256 26.4186 37.7897 25.6717 40.0719 25.6717C42.4233 25.6717 44.4219 26.4186 46.0679 27.9124C47.7415 29.42 48.606 31.5708 48.6613 34.3648V47.7053C48.606 50.4854 47.7415 52.6293 46.0679 54.1369C44.4219 55.6307 42.4233 56.3915 40.0719 56.4191C37.7897 56.3915 35.8256 55.6307 34.1797 54.1369C32.4231 52.6293 31.531 50.4854 31.5033 47.7053Z" fill="#14213A"/>
<path d="M79.9811 38.7072L79.915 37.3648L79.8017 35.9988L79.6412 34.6139L79.4193 33.21L79.2541 32.312L79.1549 31.792L78.8244 30.374L78.4515 28.956L78.0879 27.7932L78.0124 27.5427L77.5308 26.1388L76.9832 24.7586L76.3978 23.3926L75.7557 22.0644L75.0806 20.7646L74.8351 20.3344L74.7784 20.2446L74.3535 19.5072L73.6028 18.2877L72.8144 17.1155L72.0024 15.9905L71.1667 14.9176L70.3169 13.8919L69.4482 12.9229L68.5748 12.0012L67.7014 11.1315L66.8185 10.3137L65.9451 9.54328L65.0764 8.82955L64.8451 8.6452L63.967 7.96455L62.8197 7.13737L61.9463 6.55126L61.6394 6.35273L60.7707 5.80444L59.5668 5.10488L59.4441 5.0387L59.4063 5.01507L58.4243 4.4904L57.6453 4.10281L57.2251 3.89483L56.4225 3.52142L55.9599 3.31817L55.1384 2.97312L54.6379 2.7746L53.7976 2.45318L53.2594 2.25939L52.4048 1.96632L51.9847 1.8387L51.8241 1.79144L50.9554 1.52674L50.337 1.3613L49.4636 1.12969L48.8026 0.983162L47.9197 0.789371L47.2257 0.666471L46.3429 0.50104L45.6158 0.401775L44.7377 0.278883L43.9729 0.207978L43.1042 0.118168L42.311 0.0756295L41.4565 0.0236351L40.6444 0.0141868H40.6303L39.7994 0L39.3131 0.0141868L38.9637 0.0236351L38.5152 0.0330906H38.3877L38.1469 0.0425461L37.9959 0.0519944L37.3585 0.0945405L36.4993 0.151259L35.6306 0.250524L34.8705 0.330877L33.9923 0.463225L33.2653 0.571938L32.3871 0.742101L31.6931 0.869725L30.815 1.0777L30.1635 1.22895L29.2901 1.47001L28.6763 1.64018L27.8123 1.90961L27.2364 2.09395L26.3865 2.39646L25.8531 2.59026L25.0174 2.92113L24.5217 3.11965L23.7049 3.47415L23.2517 3.68213L22.4538 4.06027L22.0384 4.26825L21.2641 4.66529L20.2821 5.20414L20.2538 5.21832L20.131 5.28449L18.9413 5.9935L18.0868 6.54653L17.7752 6.74505L16.9159 7.3359L15.7828 8.1678L14.9141 8.85318L14.6875 9.03752L13.8283 9.75598L12.9643 10.5264L12.1003 11.3442L11.2316 12.2139L10.3724 13.1309L9.52257 14.0999L8.68221 15.1256L7.86073 16.1938L7.06285 17.314L6.28386 18.4768L5.54736 19.6916L5.15078 20.3864L5.07996 20.514L4.83446 20.9394L4.1735 22.2346L3.54087 23.5533L2.96961 24.9052L2.4314 26.2759L1.95928 27.6656L1.87902 27.9161L1.52493 29.0647L1.15668 30.4733L0.835645 31.8771L0.575981 33.2809L0.358808 34.6706L0.198289 36.0414L0.0849808 37.3932L0.0236058 38.7214L0 40.0213L0.0188846 40.9903V41.1982L0.0236058 41.2975V41.3211L0.0283269 41.444L0.0849808 42.6493L0.20301 44.0012L0.2455 44.3746L0.358808 45.3719L0.580702 46.7616L0.840366 48.1607L1.16613 49.5645L1.52965 50.9731L1.964 52.3722L2.43612 53.7619L2.97433 55.1326L3.55031 56.4845L4.18294 57.7985L4.84391 59.0889L5.08941 59.519L5.14134 59.6089L5.5568 60.3368L6.2933 61.5516L7.07229 62.7143L7.87017 63.8346L8.69165 64.9028L9.53202 65.9238L10.3818 66.888L11.2411 67.8097L12.105 68.6747L12.9737 69.4925L13.833 70.2629L14.697 70.9814L14.9236 71.161L15.7875 71.8464L16.9206 72.6736L17.7799 73.2644L18.0868 73.4629L18.946 74.016L20.1357 74.7202L20.2585 74.7911L20.2963 74.81L21.2641 75.3442L22.0384 75.7365L22.4538 75.9492L23.247 76.3226L23.7049 76.5306L24.517 76.8803L25.0127 77.0836L25.8483 77.4145L26.3818 77.6083L27.2316 77.906L27.6471 78.0384L27.8076 78.0904L28.6669 78.3598L29.2806 78.53L30.154 78.771L30.8055 78.9223L31.6837 79.1255L32.373 79.2579L33.2558 79.4281L33.9782 79.532L34.8563 79.6691L35.6164 79.7448L36.4804 79.844L37.2735 79.896L38.1281 79.9575L38.9401 79.9716H38.9495L39.7805 80L40.2667 79.9905L40.6161 79.9811L41.0646 79.9764H41.1921L41.4329 79.9716L41.584 79.9622L42.2213 79.9244L43.0806 79.8818L43.9492 79.792L44.7094 79.7211L45.5875 79.5935L46.3193 79.4942L47.1974 79.3335L47.8914 79.2106L48.7743 79.0168L49.4305 78.8703L50.3086 78.6387L50.9224 78.4733L51.7911 78.2133L52.3718 78.0337L53.2263 77.7406L53.7645 77.5515L54.6049 77.2301L55.1053 77.0316L55.9268 76.6866L56.3848 76.4786L57.1874 76.1099L57.6076 75.9019L58.3913 75.5143L59.3827 74.9849L59.4063 74.9707L59.5291 74.9046L60.733 74.205L61.6017 73.6567L61.9085 73.4582L62.7819 72.8721L63.9292 72.0496L64.8073 71.369L65.0339 71.1846L65.9073 70.4709L66.7808 69.7004L67.6636 68.8874L68.5417 68.0177L69.4152 67.1007L70.2791 66.1318L71.1289 65.106L71.9693 64.0378L72.7813 62.9081L73.5698 61.7406L74.3252 60.5211L74.7265 59.8263L74.802 59.6987L75.0522 59.2685L75.7273 57.9687L76.3742 56.6405L76.9596 55.2792L77.5072 53.899L77.6583 53.4688V53.4547L77.9888 52.4951L78.4326 51.0866L78.7631 49.8387L78.8103 49.6638L79.0747 48.5247L79.1077 48.3829L79.1408 48.2458L79.1502 48.2032L79.2729 47.5415L79.4099 46.8325L79.6318 45.4286L79.7923 44.039L79.915 42.673L79.9764 41.3353L80 40.0213L79.9811 38.7072Z" fill="url(#paint0_radial_46_15192)" style="mix-blend-mode:multiply"/>
<g style="mix-blend-mode:screen">
<path d="M13.7718 46.3078L13.6679 45.112L13.5593 43.5238L13.5074 42.3658L13.4743 41.1557L13.4649 39.5581L13.4838 38.3953L13.5263 37.1852L13.616 35.5923L13.7057 34.4437L13.819 33.2479L12.7992 33.2668L12.2988 33.2715L7.45958 33.3755L7.31795 34.5477L7.20936 35.6774L7.1055 37.242L7.05356 38.4284L7.02996 39.5675L7.04412 41.1321L7.08189 42.3185L7.14326 43.4576L7.27546 45.0174L7.40293 46.1897L7.54928 47.3146L7.79478 48.8461L8.18192 48.8603L8.58322 48.8745L8.98924 48.8839L9.4047 48.8981L9.8296 48.9076L10.7125 48.9359L11.1704 48.9454L11.6331 48.9595L12.5915 48.9785L13.0825 48.9926L14.0928 49.0115L13.8898 47.4517L13.7718 46.3078Z" fill="url(#paint1_linear_46_15192)"/>
<path d="M28.3601 2.95895L27.9257 2.99677L27.7133 3.01567L27.5056 3.0393L27.2978 3.05821L27.0995 3.08184L26.9013 3.10075L26.5141 3.14802L26.33 3.17165L26.1459 3.19056L25.9665 3.21419L24.7484 3.90902L23.7192 4.55658L22.7278 5.24197L21.7552 5.98406L20.7921 6.79233L19.6873 7.78968L18.6109 8.84374L17.7186 9.79381L16.8688 10.777L16.0473 11.8027L15.2447 12.8946L14.343 14.2133L13.4837 15.5793L12.7803 16.7894L12.124 18.0136L11.5103 19.2756L10.9249 20.5897L10.2875 22.1637L9.69736 23.7708L9.23469 25.1699L8.81922 26.569L8.45097 27.9917L8.12521 29.4618L7.79473 31.1917L8.18187 31.1823L8.98446 31.1539L9.39993 31.1445L9.82955 31.1303L10.2639 31.1208L11.1656 31.0925L12.1051 31.0736L12.5867 31.0594L13.0824 31.0499L13.5829 31.0358L14.0928 31.0263L14.3619 29.2632L14.631 27.7696L14.9331 26.3232L15.2683 24.9005L15.646 23.4824L16.1323 21.8517L16.6516 20.2588L17.1285 18.9306L17.6289 17.6544L18.1624 16.4207L18.7337 15.2012L19.4324 13.8257L20.1642 12.5022L20.8157 11.4103L21.4766 10.3846L22.1659 9.40149L22.8883 8.45614L23.757 7.41153L24.6493 6.41892L25.4283 5.62483L26.2072 4.89691L27.0051 4.22099L27.8313 3.59233L28.8086 2.91641L28.582 2.93532L28.3601 2.95895Z" fill="url(#paint2_linear_46_15192)"/>
<path d="M4.46159 46.1093L4.32468 44.9513L4.18305 43.4104L4.11695 42.2901L4.07446 41.1179L4.0603 39.5723L4.0839 38.4473L4.14056 37.2798L4.25386 35.7342L4.37189 34.6186L4.52297 33.4606L4.23498 33.4748L3.95171 33.4842L3.42766 33.5031L3.18216 33.5173L2.9461 33.5268L2.71949 33.5362L2.50704 33.5457L2.2993 33.5599L2.11046 33.5693L1.92633 33.5788L1.75637 33.5929L1.59585 33.6024L1.4495 33.6118L1.28898 34.7463L1.16151 35.8334L1.04348 37.3412L0.982102 38.4851L0.958496 39.5817L0.97266 41.0943L1.01515 42.2381L1.08597 43.3347L1.23704 44.8378L1.3834 45.9675L1.54864 47.0499L1.83191 48.5341L1.98299 48.5483L2.13879 48.5625L2.30875 48.5767L2.48815 48.5909L2.68172 48.605L2.88473 48.6192L3.09718 48.6334L3.31907 48.6476L3.55513 48.6618L3.80063 48.6759L4.05558 48.6901L4.31996 48.7043L4.59851 48.7185L4.8865 48.7327L4.61739 47.2154L4.46159 46.1093Z" fill="url(#paint3_linear_46_15192)"/>
<path d="M8.25745 20.8213L8.89008 19.5167L9.55577 18.2641L10.2639 17.0446L11.024 15.844L11.9541 14.4827L12.9314 13.164L13.8001 12.0768L14.6877 11.0511L15.613 10.068L16.5808 9.11318L17.7517 8.05439L18.9509 7.04759L20.0037 6.23459L21.0612 5.48777L22.1424 4.78821L23.266 4.1312L24.5974 3.42219L24.4557 3.45055L24.3235 3.47418L24.1914 3.50254L24.0686 3.52618L23.9459 3.55454L23.8278 3.57817L23.7145 3.60653L23.6059 3.63017L23.5021 3.65853L23.4029 3.68216L23.3085 3.71052L23.2188 3.73888L23.1338 3.76251L23.0536 3.79087L21.5994 4.52352L20.3814 5.19944L19.2058 5.91318L18.0586 6.67418L16.916 7.50136L15.6225 8.51761L14.3572 9.58586L13.3091 10.5454L12.3176 11.5285L11.3592 12.5542L10.4245 13.6367L9.38108 14.946L8.3802 16.2978L7.56816 17.4889L6.80805 18.6943L6.09988 19.9279L5.42475 21.2136L4.69297 22.7498L4.01313 24.3144L3.47964 25.6757L3.0028 27.0322L2.58262 28.4124L2.20492 29.8305L1.82723 31.5085L1.97831 31.4943L2.13411 31.4801L2.30407 31.4659L2.48347 31.4517L2.67704 31.4375L2.88005 31.4186L3.0925 31.4092L3.3144 31.3903L3.55045 31.3808L3.79595 31.3666L4.0509 31.3525L4.31528 31.3383L4.59383 31.3241L4.88182 31.3099L5.23591 29.5989L5.58999 28.1477L5.98657 26.7392L6.43036 25.3542L6.9308 23.9693L7.56816 22.3764L8.25745 20.8213Z" fill="url(#paint4_linear_46_15192)"/>
<path d="M77.6869 37.8281L77.5641 36.0083L77.38 34.2405L77.1298 32.5199L76.8843 31.1728L76.5963 29.8446L76.2611 28.5353L75.8787 27.2355L75.4538 25.9451L74.8542 24.338L74.1791 22.7309C73.4237 21.1143 73.079 21.0718 73.079 21.0718L72.7108 21.0293L72.3142 20.9867L71.894 20.9442L71.4455 20.9016L70.9734 20.8591L70.4777 20.8166L69.9584 20.7787L69.4154 20.7409L68.8489 20.7031L68.254 20.6653L67.6403 20.6275L67.0029 20.5897L66.342 20.5566L66.9557 22.2109L67.5081 23.8558L67.9991 25.5055L68.3485 26.8337L68.66 28.1714L68.9339 29.5232L69.1699 30.8939L69.3729 32.2836L69.576 34.0609L69.727 35.8854L69.8262 37.7666L69.8734 39.6526L69.8639 41.4913L69.7978 43.2922L69.7034 44.7102L69.576 46.1093L69.4107 47.499L69.2077 48.8792L68.9622 50.2547L68.6034 51.9752L68.1832 53.7052L67.7017 55.4493L67.1729 57.1651L66.6111 58.8006L66.0115 60.3651L65.5016 61.5657L64.9634 62.7285L64.3968 63.8582L63.802 64.9548L63.1741 66.0278L62.3431 67.3323L61.4556 68.6038L60.5113 69.8517L59.5388 71.0428L58.5615 72.1442L57.5748 73.1604L56.7769 73.912L55.9649 74.6162L55.1387 75.2733L54.2936 75.883L53.4296 76.4502L52.3201 77.1072L51.1729 77.7028L49.9832 78.2464L50.2475 78.218L50.5072 78.1897L50.7574 78.1613L50.9982 78.1329L51.2295 78.1046L51.4562 78.0762L51.6733 78.0479L51.8811 78.0148L52.0793 77.9817L52.2682 77.9486L52.4476 77.9155L52.6176 77.8824L52.7781 77.8493L52.9292 77.8163L54.4446 77.2301L55.8988 76.5967L57.3009 75.9067L58.3915 75.3111L59.4538 74.6777L60.4924 74.0018L61.5122 73.2786L62.5178 72.5129L63.7548 71.4824L64.9775 70.3716L66.1909 69.1758L67.3665 67.9279L68.4665 66.6564L69.4957 65.3613L70.2747 64.3025L71.0112 63.2201L71.7099 62.1093L72.3709 60.9654L72.9988 59.7837L73.7353 58.2523L74.4293 56.6547L75.0808 54.9814L75.671 53.2798L76.1856 51.5971L76.6246 49.9238L76.9221 48.5908L77.1723 47.2532L77.3753 45.9061L77.5358 44.5495L77.6491 43.1787L77.7294 41.4393L77.7388 39.662L77.6822 37.8375L77.6869 37.8281Z" fill="url(#paint5_linear_46_15192)"/>
</g>
<path style="mix-blend-mode:screen" d="M30.7601 34.1351C35.1095 29.7806 35.1095 22.7205 30.7601 18.366C26.4108 14.0116 19.3591 14.0116 15.0097 18.366C10.6604 22.7205 10.6604 29.7806 15.0097 34.135C19.3591 38.4895 26.4108 38.4895 30.7601 34.1351Z" fill="url(#paint6_radial_46_15192)"/>
<defs>
<radialGradient id="paint0_radial_46_15192" cx="0" cy="0" r="1" gradientUnits="userSpaceOnUse" gradientTransform="translate(25.0835 24.0969) scale(61.8188 61.8919)">
<stop stop-color="white"/>
<stop offset="0.675" stop-color="#D1D1D1"/>
<stop offset="1" stop-color="#939393"/>
</radialGradient>
<linearGradient id="paint1_linear_46_15192" x1="14.8835" y1="2.91641" x2="14.8835" y2="49.0115" gradientUnits="userSpaceOnUse">
<stop stop-color="#424242" stop-opacity="0.2"/>
<stop offset="1" stop-color="#424242" stop-opacity="0.7"/>
</linearGradient>
<linearGradient id="paint2_linear_46_15192" x1="14.8835" y1="2.91641" x2="14.8835" y2="49.0115" gradientUnits="userSpaceOnUse">
<stop stop-color="#424242" stop-opacity="0.2"/>
<stop offset="1" stop-color="#424242" stop-opacity="0.7"/>
</linearGradient>
<linearGradient id="paint3_linear_46_15192" x1="14.8835" y1="2.91641" x2="14.8835" y2="49.0115" gradientUnits="userSpaceOnUse">
<stop stop-color="#424242" stop-opacity="0.2"/>
<stop offset="1" stop-color="#424242" stop-opacity="0.7"/>
</linearGradient>
<linearGradient id="paint4_linear_46_15192" x1="14.8835" y1="2.91641" x2="14.8835" y2="49.0115" gradientUnits="userSpaceOnUse">
<stop stop-color="#424242" stop-opacity="0.2"/>
<stop offset="1" stop-color="#424242" stop-opacity="0.7"/>
</linearGradient>
<linearGradient id="paint5_linear_46_15192" x1="63.861" y1="20.5566" x2="63.861" y2="78.2464" gradientUnits="userSpaceOnUse">
<stop stop-color="#424242" stop-opacity="0.5"/>
<stop offset="1" stop-color="#424242" stop-opacity="0.1"/>
</linearGradient>
<radialGradient id="paint6_radial_46_15192" cx="0" cy="0" r="1" gradientUnits="userSpaceOnUse" gradientTransform="translate(22.8806 26.2504) scale(11.1372 11.1504)">
<stop stop-color="white"/>
<stop offset="0.11" stop-color="#D8D8D8"/>
<stop offset="1"/>
</radialGradient>
</defs>
</svg>
