<svg width="80" height="80" viewBox="0 0 80 80" fill="none" xmlns="http://www.w3.org/2000/svg">
<circle cx="40" cy="40" r="40" fill="#45CA71"/>
<path d="M61.6916 38.5323L61.6443 37.7855L61.6019 37.1521L61.5263 36.7645L61.3375 35.7861L61.2006 35.096L61.0636 34.3917L60.837 33.7111L60.7662 33.4984L60.5868 32.9642L60.2516 31.9574L60.1902 31.7731L60.0816 31.5509L59.5906 30.5205L59.0099 29.3105L58.9722 29.249L58.8919 29.1261L58.8116 28.9985L58.061 27.8357L57.5417 27.0322L57.3103 26.7533L57.1828 26.6021L57.0931 26.4933L56.2245 25.4487L55.8137 24.9571L55.4219 24.5885L55.1905 24.371L54.7373 23.9456L54.1141 23.3642L53.845 23.1137L53.7931 23.0759L52.9385 22.452L52.2209 21.9273L51.7535 21.587L51.6638 21.5208L50.6913 20.982L50.4458 20.8449L49.2891 20.2068L49.1947 20.169L49.1427 20.1501L47.75 19.5923L47.7122 19.5781L46.7444 19.1905L46.3336 19.0818L46.2723 19.0676L44.9598 18.7273L44.7426 18.6706L44.058 18.4957L43.619 18.4343L43.161 18.3681L42.3112 18.2452L41.9571 18.1932L41.4992 18.1696L41.0412 18.1459L39.8893 18.0939H39.7996H39.7051L38.5579 18.1696L38.1377 18.1979L37.2832 18.2546L36.9338 18.2783L36.4381 18.3775L35.9801 18.4673L34.8612 18.6895L34.644 18.732L34.1861 18.8218L33.3457 19.1007L33.2702 19.1244L31.8727 19.5923H31.8633L31.7689 19.6254L31.5753 19.6916L31.4337 19.7577L30.5083 20.2021L30.4186 20.2446L29.1392 20.8638H29.125L28.9362 20.9914L27.907 21.6532L27.4112 21.9746L26.8541 22.3338L26.67 22.4851L25.8391 23.1799L25.5464 23.4257L24.791 24.0591L24.4558 24.423L24.2339 24.6594L23.4407 25.5055L22.9592 26.0207L22.5768 26.5406L22.4918 26.654L22.4021 26.7769L21.6042 27.8735L21.3729 28.1902L20.8677 29.093L20.8158 29.1828L20.778 29.249L20.0651 30.5347L20.051 30.5583L19.6449 31.5604L19.4655 32.0047L19.1162 32.8697L19.0265 33.0919L18.9132 33.5173L18.8565 33.7394L18.4977 35.1149L18.3277 35.7719L18.3183 35.8334L18.1814 36.7787L18.0303 37.8091L18.0209 37.8611L17.9878 38.5182L17.9312 39.6951L17.917 40.0118L17.9359 40.3332L18.0114 41.4913L18.0586 42.2381L18.1011 42.8668L18.1767 43.2496L18.3655 44.2233L18.4977 44.9087L18.6346 45.6083L18.8565 46.2842L18.9273 46.4969L19.102 47.031L19.4325 48.0331L19.4939 48.2174L19.5977 48.4396L20.084 49.4653L20.66 50.6706L20.6978 50.732L20.7733 50.8549L20.8536 50.9826L21.5948 52.1406L22.1094 52.9441L22.336 53.223L22.4635 53.3743L22.5532 53.483L23.4171 54.5229L23.8232 55.0145L24.2103 55.3831L24.4369 55.6006L24.8901 56.026L25.5086 56.6074L25.773 56.8579L25.8249 56.8957L26.67 57.5196L27.3829 58.0443L27.8456 58.3846L27.9353 58.4508L28.9031 58.9944L29.1486 59.1315L30.2959 59.7743L30.3903 59.8121L30.4422 59.8357L31.8302 60.4029L31.868 60.4171L32.8311 60.8094L33.2419 60.9182L33.3032 60.9323L34.611 61.2821L34.8282 61.3388L35.5127 61.5184L35.9471 61.5846L36.405 61.6508L37.2501 61.7784L37.6042 61.8304L38.0622 61.854L38.5201 61.8777L39.6721 61.9344H39.7618H39.8562L41.0034 61.8635L41.4236 61.8351L42.2782 61.7831L42.6275 61.7595L43.1232 61.665L43.5859 61.5752L44.7096 61.3577L44.9267 61.3152L45.3847 61.2254L46.225 60.9512L46.3006 60.9276L47.7028 60.4644H47.7122L47.8066 60.4313L48.0002 60.3651L48.1418 60.2989L49.0719 59.8594L49.1616 59.8168L50.4458 59.2024H50.4599L50.6488 59.0795L51.6827 58.4177L52.1831 58.0963L52.7402 57.7371L52.9244 57.5858L53.76 56.8957L54.0527 56.6499L54.8128 56.0165L55.1528 55.6573L55.3746 55.421L56.1725 54.5749L56.6588 54.0597L57.0459 53.5397L57.1309 53.4263L57.2253 53.2986L58.0327 52.2021L58.2687 51.8806L58.7786 50.9778L58.8305 50.888L58.8683 50.8218L59.5859 49.5314L59.6001 49.5078L60.0108 48.5057L60.195 48.0567L60.5443 47.187L60.634 46.9648L60.7473 46.5394L60.8087 46.3173L61.1722 44.9371L61.3469 44.2753L61.3564 44.2139L61.498 43.2638L61.6491 42.2239L61.6585 42.1719L61.6916 41.5149L61.7482 40.3285L61.7624 40.0118L61.7435 39.6904L61.6679 38.5229L61.6916 38.5323Z" fill="white"/>
<path d="M34.3662 56.1702C34.3523 56.1702 34.4699 55.9212 34.7189 55.4233C34.9678 54.9115 35.2929 54.2545 35.694 53.4523C36.0951 52.65 36.5446 51.7579 37.0426 50.7759C37.5405 49.7938 38.0315 48.8256 38.5156 47.8713C38.9997 46.9169 39.4493 46.0386 39.8642 45.2364C40.293 44.4341 40.6388 43.8048 40.9016 43.3484C40.5005 43.5835 40.044 43.7287 39.5322 43.784C39.0343 43.8255 38.4534 43.8325 37.7895 43.8048C36.8766 43.7771 36.0744 43.6112 35.3828 43.3069C34.705 43.0026 34.1172 42.6222 33.6193 42.1658C33.1213 41.7093 32.7064 41.2045 32.3744 40.6512C32.0425 40.0841 31.7728 39.5378 31.5653 39.0122C31.3717 38.4727 31.2264 37.9748 31.1296 37.5184C31.0466 37.0481 31.0051 36.6816 31.0051 36.4188C31.0051 36.3358 30.9982 36.1836 30.9844 35.9623C30.9844 35.741 30.9844 35.499 30.9844 35.2362C30.9844 34.9595 30.9844 34.6829 30.9844 34.4063C30.9982 34.1296 31.0189 33.8945 31.0466 33.7009C31.0604 33.604 31.1019 33.362 31.1711 32.9747C31.2541 32.5736 31.3993 32.0964 31.6068 31.5432C31.8143 30.9899 32.1047 30.4021 32.4782 29.7796C32.8516 29.1434 33.3357 28.5486 33.9305 27.9954C34.5391 27.4421 35.2791 26.9649 36.1504 26.5638C37.0357 26.1627 38.0799 25.9068 39.2833 25.7962C40.5419 25.6855 41.6485 25.7616 42.6028 26.0244C43.571 26.2872 44.4009 26.6675 45.0925 27.1655C45.7841 27.6634 46.3581 28.2443 46.8145 28.9083C47.271 29.5722 47.6237 30.2499 47.8727 30.9415C48.1354 31.6192 48.3083 32.2831 48.3913 32.9332C48.4743 33.5695 48.4882 34.1158 48.4328 34.5723C48.3498 35.25 48.2599 35.8586 48.1631 36.398C48.0663 36.9236 47.9487 37.4285 47.8104 37.9126C47.6859 38.3967 47.5407 38.8739 47.3747 39.3441C47.2087 39.8144 47.0151 40.3262 46.7938 40.8794C46.7385 41.0316 46.5863 41.3635 46.3374 41.8753C46.1022 42.3871 45.7979 43.0164 45.4245 43.7633C45.0649 44.4964 44.6637 45.3193 44.2211 46.2322C43.7924 47.1313 43.3497 48.0372 42.8933 48.9501C41.8283 51.1078 40.6388 53.5145 39.3248 56.1702H34.3662ZM35.2998 34.261C35.2998 34.8005 35.3275 35.3952 35.3828 36.0453C35.4381 36.6954 35.5972 37.3109 35.86 37.8918C36.1366 38.4589 36.5654 38.9499 37.1463 39.3649C37.7272 39.766 38.5433 39.9942 39.5945 40.0495C40.1201 40.0772 40.5973 40.015 41.0261 39.8628C41.4548 39.6968 41.8352 39.4824 42.1672 39.2196C42.4991 38.9568 42.7827 38.6595 43.0178 38.3275C43.2668 37.9956 43.4673 37.6705 43.6195 37.3524C43.7854 37.0204 43.903 36.7161 43.9722 36.4395C44.0413 36.1629 44.0759 35.9416 44.0759 35.7756C44.0621 35.4298 44.0482 35.0425 44.0344 34.6138C44.0344 34.185 43.9929 33.7493 43.9099 33.3067C43.8408 32.8641 43.7163 32.4422 43.5365 32.0411C43.3567 31.6261 43.1008 31.2665 42.7688 30.9622C42.4369 30.6579 42.0081 30.4228 41.4825 30.2568C40.9707 30.077 40.3276 30.0079 39.553 30.0494C38.6954 30.0908 37.99 30.3052 37.4368 30.6925C36.8973 31.0798 36.4686 31.5086 36.1504 31.9788C35.8323 32.4491 35.611 32.9056 35.4865 33.3482C35.362 33.7908 35.2998 34.0951 35.2998 34.261Z" fill="#14213A"/>
<path style="mix-blend-mode:multiply" d="M79.9811 38.7072L79.915 37.3648L79.8017 35.9988L79.6412 34.6139L79.4193 33.21L79.2541 32.312L79.1549 31.792L78.8244 30.374L78.4515 28.956L78.0879 27.7932L78.0124 27.5427L77.5308 26.1388L76.9832 24.7586L76.3978 23.3926L75.7557 22.0644L75.0806 20.7646L74.8351 20.3344L74.7784 20.2446L74.3535 19.5072L73.6028 18.2877L72.8144 17.1155L72.0024 15.9905L71.1667 14.9176L70.3169 13.8919L69.4482 12.9229L68.5748 12.0012L67.7014 11.1315L66.8185 10.3137L65.9451 9.54328L65.0764 8.82955L64.8451 8.6452L63.967 7.96455L62.8197 7.13737L61.9463 6.55126L61.6394 6.35273L60.7707 5.80444L59.5668 5.10488L59.4441 5.0387L59.4063 5.01507L58.4243 4.4904L57.6453 4.10281L57.2251 3.89483L56.4225 3.52142L55.9599 3.31817L55.1384 2.97312L54.6379 2.7746L53.7976 2.45318L53.2594 2.25939L52.4048 1.96632L51.9847 1.8387L51.8241 1.79144L50.9554 1.52674L50.337 1.3613L49.4636 1.12969L48.8026 0.983162L47.9197 0.789371L47.2257 0.666471L46.3429 0.50104L45.6158 0.401775L44.7377 0.278883L43.9729 0.207978L43.1042 0.118168L42.311 0.0756295L41.4565 0.0236351L40.6444 0.0141868H40.6303L39.7994 0L39.3131 0.0141868L38.9637 0.0236351L38.5152 0.0330906H38.3877L38.1469 0.0425461L37.9959 0.0519944L37.3585 0.0945405L36.4993 0.151259L35.6306 0.250524L34.8705 0.330877L33.9923 0.463225L33.2653 0.571938L32.3871 0.742101L31.6931 0.869725L30.815 1.0777L30.1635 1.22895L29.2901 1.47001L28.6763 1.64018L27.8123 1.90961L27.2364 2.09395L26.3865 2.39646L25.8531 2.59026L25.0174 2.92113L24.5217 3.11965L23.7049 3.47415L23.2517 3.68213L22.4538 4.06027L22.0384 4.26825L21.2641 4.66529L20.2821 5.20414L20.2538 5.21832L20.131 5.28449L18.9413 5.9935L18.0868 6.54653L17.7752 6.74505L16.9159 7.3359L15.7828 8.1678L14.9141 8.85318L14.6875 9.03752L13.8283 9.75598L12.9643 10.5264L12.1003 11.3442L11.2316 12.2139L10.3724 13.1309L9.52257 14.0999L8.68221 15.1256L7.86073 16.1938L7.06285 17.314L6.28386 18.4768L5.54736 19.6916L5.15078 20.3864L5.07996 20.514L4.83446 20.9394L4.1735 22.2346L3.54087 23.5533L2.96961 24.9052L2.4314 26.2759L1.95928 27.6656L1.87902 27.9161L1.52493 29.0647L1.15668 30.4733L0.835645 31.8771L0.575981 33.2809L0.358808 34.6706L0.198289 36.0414L0.0849808 37.3932L0.0236058 38.7214L0 40.0213L0.0188846 40.9903V41.1982L0.0236058 41.2975V41.3211L0.0283269 41.444L0.0849808 42.6493L0.20301 44.0012L0.2455 44.3746L0.358808 45.3719L0.580702 46.7616L0.840366 48.1607L1.16613 49.5645L1.52965 50.9731L1.964 52.3722L2.43612 53.7619L2.97433 55.1326L3.55031 56.4845L4.18294 57.7985L4.84391 59.0889L5.08941 59.519L5.14134 59.6089L5.5568 60.3368L6.2933 61.5516L7.07229 62.7143L7.87017 63.8346L8.69165 64.9028L9.53202 65.9238L10.3818 66.888L11.2411 67.8097L12.105 68.6747L12.9737 69.4925L13.833 70.2629L14.697 70.9814L14.9236 71.161L15.7875 71.8464L16.9206 72.6736L17.7799 73.2644L18.0868 73.4629L18.946 74.016L20.1357 74.7202L20.2585 74.7911L20.2963 74.81L21.2641 75.3442L22.0384 75.7365L22.4538 75.9492L23.247 76.3226L23.7049 76.5306L24.517 76.8803L25.0127 77.0836L25.8483 77.4145L26.3818 77.6083L27.2316 77.906L27.6471 78.0384L27.8076 78.0904L28.6669 78.3598L29.2806 78.53L30.154 78.771L30.8055 78.9223L31.6837 79.1255L32.373 79.2579L33.2558 79.4281L33.9782 79.532L34.8563 79.6691L35.6164 79.7448L36.4804 79.844L37.2735 79.896L38.1281 79.9575L38.9401 79.9716H38.9495L39.7805 80L40.2667 79.9905L40.6161 79.9811L41.0646 79.9764H41.1921L41.4329 79.9716L41.584 79.9622L42.2213 79.9244L43.0806 79.8818L43.9492 79.792L44.7094 79.7211L45.5875 79.5935L46.3193 79.4942L47.1974 79.3335L47.8914 79.2106L48.7743 79.0168L49.4305 78.8703L50.3086 78.6387L50.9224 78.4733L51.7911 78.2133L52.3718 78.0337L53.2263 77.7406L53.7645 77.5515L54.6049 77.2301L55.1053 77.0316L55.9268 76.6866L56.3848 76.4786L57.1874 76.1099L57.6076 75.9019L58.3913 75.5143L59.3827 74.9849L59.4063 74.9707L59.5291 74.9046L60.733 74.205L61.6017 73.6567L61.9085 73.4582L62.7819 72.8721L63.9292 72.0496L64.8073 71.369L65.0339 71.1846L65.9073 70.4709L66.7808 69.7004L67.6636 68.8874L68.5417 68.0177L69.4152 67.1007L70.2791 66.1318L71.1289 65.106L71.9693 64.0378L72.7813 62.9081L73.5698 61.7406L74.3252 60.5211L74.7265 59.8263L74.802 59.6987L75.0522 59.2685L75.7273 57.9687L76.3742 56.6405L76.9596 55.2792L77.5072 53.899L77.6583 53.4688V53.4547L77.9888 52.4951L78.4326 51.0866L78.7631 49.8387L78.8103 49.6638L79.0747 48.5247L79.1077 48.3829L79.1408 48.2458L79.1502 48.2032L79.2729 47.5415L79.4099 46.8325L79.6318 45.4286L79.7923 44.039L79.915 42.673L79.9764 41.3353L80 40.0213L79.9811 38.7072Z" fill="url(#paint0_radial_46_15405)"/>
<g style="mix-blend-mode:screen">
<path fill-rule="evenodd" clip-rule="evenodd" d="M28.143 2.97782L28.3601 2.95892L28.582 2.93529L28.8087 2.91638L27.8314 3.5923L27.0052 4.22096L26.2073 4.89688L25.4283 5.6248L24.6493 6.41889L23.757 7.4115L22.8883 8.45611L22.166 9.40146L21.4767 10.3846L20.8157 11.4103L20.1642 12.5022L19.4324 13.8257L18.7337 15.2012L18.1624 16.4207L17.629 17.6543L17.1285 18.9306L16.6517 20.2588L16.1324 21.8517L15.6461 23.4824L15.2684 24.9004L14.9332 26.3232L14.631 27.7696L14.3619 29.2632L14.0928 31.0263L13.5829 31.0357L13.0825 31.0499L12.5868 31.0594L12.1052 31.0735L11.6331 31.083L11.1657 31.0925L10.7125 31.1066L10.264 31.1208L9.82961 31.1303L9.39998 31.1444L8.98452 31.1539L8.5785 31.1681L8.18192 31.1823L7.79479 31.1917L8.12527 29.4617L8.45103 27.9917L8.81928 26.569L9.23474 25.1698L9.69742 23.7707L10.2876 22.1636L10.9249 20.5896L11.5103 19.2756L12.1241 18.0136L12.7803 16.7893L13.4838 15.5793L14.343 14.2133L15.2448 12.8945L16.0474 11.8026L16.8689 10.7769L17.7187 9.79378L18.611 8.8437L19.6874 7.78964L20.7921 6.7923L21.7553 5.98403L22.7278 5.24193L23.7193 4.55655L24.7485 3.90899L25.9665 3.21416L26.1459 3.19053L26.3301 3.17162L26.5142 3.14799L26.7077 3.12435L26.9013 3.10072L27.0996 3.08181L27.2979 3.05818L27.5056 3.03927L27.7134 3.01564L27.9258 2.99674L28.143 2.97782ZM13.6678 45.1119L13.7717 46.3078L13.8897 47.4517L14.0927 49.0115L13.5828 49.002L13.0824 48.9926L12.5914 48.9784L12.1098 48.969L11.633 48.9595L11.1703 48.9453L10.7124 48.9359L10.2686 48.9217L9.82952 48.9075L9.40462 48.8981L8.98915 48.8839L8.58313 48.8744L8.18184 48.8602L7.7947 48.8461L7.5492 47.3146L7.40285 46.1896L7.27537 45.0174L7.14318 43.4576L7.08181 42.3184L7.04404 41.132L7.02987 39.5675L7.05348 38.4283L7.10541 37.2419L7.20928 35.6774L7.31786 34.5477L7.4595 33.3755L7.85135 33.366L8.25265 33.3565L8.66339 33.3471L9.08358 33.3376L9.5132 33.3282L9.95699 33.3187L10.4055 33.3093L10.8635 33.2998L11.3356 33.2904L11.8124 33.2809L12.2987 33.2715L12.7991 33.2667L13.3043 33.2573L13.8189 33.2478L13.7056 34.4437L13.6159 35.5923L13.5262 37.1852L13.4837 38.3952L13.4648 39.558L13.4743 41.1557L13.5073 42.3657L13.5592 43.5238L13.6678 45.1119ZM4.46159 46.1093L4.32468 44.9513L4.18305 43.4103L4.11695 42.2901L4.07446 41.1179L4.0603 39.5722L4.0839 38.4473L4.14056 37.2798L4.25386 35.7341L4.37189 34.6186L4.52297 33.4606L4.23498 33.4747L3.95171 33.4842L3.68732 33.4936L3.42766 33.5031L3.18216 33.5173L2.9461 33.5267L2.71949 33.5362L2.50704 33.5456L2.2993 33.5598L2.11046 33.5693L1.92633 33.5787L1.75637 33.5929L1.59585 33.6024L1.4495 33.6118L1.28898 34.7462L1.16151 35.8334L1.04348 37.3412L0.982102 38.4851L0.958496 39.5817L0.97266 41.0942L1.01515 42.2381L1.08597 43.3347L1.23704 44.8378L1.3834 45.9675L1.54864 47.0499L1.83191 48.5341L1.98299 48.5483L2.13879 48.5625L2.30875 48.5767L2.48815 48.5908L2.68172 48.605L2.88473 48.6192L3.09718 48.6334L3.31907 48.6476L3.55513 48.6617L3.80063 48.6759L4.05558 48.6901L4.31996 48.7043L4.59851 48.7185L4.8865 48.7326L4.61739 47.2154L4.46159 46.1093ZM8.88996 19.5167L8.25732 20.8213L7.56803 22.3764L6.93068 23.9693L6.43023 25.3542L5.98644 26.7392L5.58987 28.1477L5.23578 29.5989L4.88169 31.3099L4.5937 31.3241L4.31515 31.3383L4.05077 31.3525L3.79583 31.3667L3.55033 31.3808L3.31427 31.3903L3.09237 31.4092L2.87992 31.4187L2.67691 31.4376L2.48335 31.4517L2.30394 31.4659L2.13398 31.4801L1.97818 31.4943L1.8271 31.5085L2.2048 29.8305L2.58249 28.4124L3.00267 27.0322L3.47951 25.6757L4.013 24.3144L4.69285 22.7498L5.42463 21.2136L6.09975 19.928L6.80792 18.6943L7.56803 17.489L8.38007 16.2978L9.38096 14.946L10.4243 13.6367L11.3591 12.5543L12.3175 11.5285L13.309 10.5454L14.3571 9.58586L15.6223 8.51762L16.9159 7.50137L18.0584 6.67419L19.2057 5.91319L20.3813 5.19945L21.5993 4.52353L23.0534 3.79088L23.1337 3.76252L23.2187 3.73889L23.3084 3.71053L23.4028 3.68217L23.5019 3.65853L23.6058 3.63017L23.7144 3.60654L23.8277 3.57818L23.9457 3.55454L24.0685 3.52619L24.1912 3.50255L24.3234 3.47419L24.4556 3.45056L24.5972 3.4222L23.2659 4.13121L22.1422 4.78822L21.0611 5.48778L20.0036 6.2346L18.9507 7.0476L17.7516 8.0544L16.5807 9.11319L15.6129 10.068L14.6875 11.0511L13.8 12.0768L12.9313 13.164L11.954 14.4828L11.0239 15.8441L10.2638 17.0447L9.55564 18.2641L8.88996 19.5167Z" fill="url(#paint1_linear_46_15405)"/>
<path d="M77.6867 37.8281L77.5639 36.0083L77.3798 34.2405L77.1296 32.5199L76.8841 31.1728L76.5961 29.8446L76.2609 28.5353L75.8785 27.2355L75.4536 25.9451L74.854 24.338L74.1788 22.7309C73.4235 21.1143 73.0788 21.0718 73.0788 21.0718L72.7106 21.0293L72.314 20.9867L71.8938 20.9442L71.4453 20.9016L70.9732 20.8591L70.4775 20.8166L69.9581 20.7787L69.4152 20.7409L68.8487 20.7031L68.2538 20.6653L67.64 20.6275L67.0027 20.5897L66.3417 20.5566L66.9555 22.2109L67.5078 23.8558L67.9988 25.5055L68.3482 26.8337L68.6598 28.1714L68.9336 29.5232L69.1697 30.8939L69.3727 32.2836L69.5757 34.0609L69.7268 35.8854L69.8259 37.7666L69.8731 39.6526L69.8637 41.4913L69.7976 43.2922L69.7032 44.7102L69.5757 46.1093L69.4105 47.499L69.2075 48.8792L68.962 50.2547L68.6032 51.9752L68.183 53.7052L67.7014 55.4493L67.1726 57.1651L66.6108 58.8006L66.0112 60.3651L65.5014 61.5657L64.9631 62.7285L64.3966 63.8582L63.8017 64.9548L63.1738 66.0278L62.3429 67.3323L61.4553 68.6038L60.5111 69.8517L59.5385 71.0428L58.5613 72.1442L57.5745 73.1604L56.7767 73.912L55.9646 74.6162L55.1384 75.2733L54.2933 75.883L53.4294 76.4502L52.3199 77.1072L51.1726 77.7028L49.9829 78.2464L50.2473 78.218L50.507 78.1897L50.7572 78.1613L50.998 78.1329L51.2293 78.1046L51.4559 78.0762L51.6731 78.0479L51.8808 78.0148L52.0791 77.9817L52.2679 77.9486L52.4474 77.9155L52.6173 77.8824L52.7778 77.8493L52.9289 77.8163L54.4444 77.2301L55.8985 76.5967L57.3007 75.9067L58.3913 75.3111L59.4535 74.6777L60.4922 74.0018L61.512 73.2786L62.5176 72.5129L63.7545 71.4824L64.9773 70.3716L66.1906 69.1758L67.3662 67.9279L68.4662 66.6564L69.4954 65.3613L70.2744 64.3025L71.0109 63.2201L71.7097 62.1093L72.3706 60.9654L72.9985 59.7837L73.735 58.2523L74.4291 56.6547L75.0806 54.9814L75.6707 53.2798L76.1853 51.5971L76.6244 49.9238L76.9218 48.5908L77.1721 47.2532L77.3751 45.9061L77.5356 44.5495L77.6489 43.1787L77.7291 41.4393L77.7386 39.662L77.6819 37.8375L77.6867 37.8281Z" fill="url(#paint2_linear_46_15405)"/>
</g>
<path style="mix-blend-mode:screen" opacity="0.7" d="M30.7604 34.1351C35.1097 29.7806 35.1097 22.7205 30.7603 18.366C26.411 14.0116 19.3593 14.0116 15.01 18.366C10.6606 22.7205 10.6606 29.7806 15.01 34.135C19.3593 38.4895 26.411 38.4895 30.7604 34.1351Z" fill="url(#paint3_radial_46_15405)"/>
<defs>
<radialGradient id="paint0_radial_46_15405" cx="0" cy="0" r="1" gradientUnits="userSpaceOnUse" gradientTransform="translate(25.0835 24.0969) scale(61.8188 61.8919)">
<stop stop-color="white"/>
<stop offset="0.5" stop-color="#C4FFDC"/>
<stop offset="1" stop-color="#49D678"/>
</radialGradient>
<linearGradient id="paint1_linear_46_15405" x1="14.8836" y1="2.91638" x2="14.8836" y2="49.0115" gradientUnits="userSpaceOnUse">
<stop stop-color="#424242" stop-opacity="0.3"/>
<stop offset="1" stop-color="#424242"/>
</linearGradient>
<linearGradient id="paint2_linear_46_15405" x1="63.8608" y1="20.5566" x2="63.8608" y2="78.2464" gradientUnits="userSpaceOnUse">
<stop stop-color="#424242" stop-opacity="0.7"/>
<stop offset="1" stop-color="#424242" stop-opacity="0.2"/>
</linearGradient>
<radialGradient id="paint3_radial_46_15405" cx="0" cy="0" r="1" gradientUnits="userSpaceOnUse" gradientTransform="translate(22.8808 26.2504) scale(11.1372 11.1504)">
<stop stop-color="white"/>
<stop offset="0.11" stop-color="#D8D8D8"/>
<stop offset="1"/>
</radialGradient>
</defs>
</svg>
